<svg xmlns="http://www.w3.org/2000/svg" width="17.828" height="17.828" viewBox="0 0 17.828 17.828">
  <path id="Icon_ionic-ios-arrow-dropleft-circle" data-name="Icon ionic-ios-arrow-dropleft-circle" d="M12.289,3.375A8.914,8.914,0,1,0,21.2,12.289,8.913,8.913,0,0,0,12.289,3.375Zm1.86,12.39a.83.83,0,0,1,0,1.17.817.817,0,0,1-.583.24.831.831,0,0,1-.587-.244L8.951,12.889a.826.826,0,0,1,.026-1.14l4.088-4.1a.827.827,0,0,1,1.17,1.17l-3.51,3.471Z" transform="translate(-3.375 -3.375)" fill="#3c3c3c"/>
</svg>
