<svg id="Icon_ionic-ios-eye" data-name="Icon ionic-ios-eye" xmlns="http://www.w3.org/2000/svg" width="17.368" height="11.165" viewBox="0 0 17.368 11.165">
  <path id="Path_97" data-name="Path 97" d="M10.927,7.875c-3.117,0-5.575,1.962-8.513,5.167a.613.613,0,0,0,0,.826c2.516,2.78,4.733,5.171,8.517,5.171,3.737,0,6.54-3.012,8.532-5.195a.608.608,0,0,0,.019-.8C17.447,10.581,14.636,7.875,10.927,7.875Zm.171,9.067a3.489,3.489,0,1,1,3.322-3.322A3.49,3.49,0,0,1,11.1,16.942Z" transform="translate(-2.252 -7.875)" fill="#fff"/>
  <path id="Path_98" data-name="Path 98" d="M15.982,14.159a1.821,1.821,0,0,1,.12-.655c-.039,0-.078,0-.12,0a2.481,2.481,0,1,0,2.481,2.481c0-.05,0-.1,0-.151a1.719,1.719,0,0,1-.706.151A1.8,1.8,0,0,1,15.982,14.159Z" transform="translate(-7.299 -10.399)" fill="#fff"/>
</svg>
